<svg data-v-fde0c5aa="" xmlns="http://www.w3.org/2000/svg" viewBox="0 0 300 300" class="iconLeftSlogan"><!----><defs data-v-fde0c5aa=""><!----></defs><rect data-v-fde0c5aa="" fill="#F9F5EC" x="0" y="0" width="300px" height="300px" class="logo-background-square"></rect><defs data-v-fde0c5aa=""><!----></defs><g data-v-fde0c5aa="" id="76277d38-73f3-487d-aa90-99ba4721fb5f" fill="#B3A09D" transform="matrix(4.060738443868534,0,0,4.060738443868534,157.7099926786808,120.16329201431182)"><path d="M4.98 2.39L4.98 2.39L4.98 2.39Q4.62 2.39 4.38 2.13L4.38 2.13L4.38 2.13Q4.13 1.88 4.13 1.51L4.13 1.51L4.13 1.51Q4.13 1.12 4.42 0.85L4.42 0.85L4.42 0.85Q4.70 0.57 5.10 0.63L5.10 0.63L5.10 0.63Q4.82 0.36 4.33 0.36L4.33 0.36L4.33 0.36Q3.23 0.36 3.21 1.51L3.21 1.51L3.21 4.00L5.81 4.00L5.81 4.42L3.21 4.42L3.21 9.41L4.49 9.41L4.49 9.83L0.21 9.83L0.21 9.41L1.50 9.41L1.50 4.42L0.21 4.42L0.21 4.00L1.50 4.00L1.50 2.83L1.50 2.83Q1.50 1.46 2.23 0.70L2.23 0.70L2.23 0.70Q2.97-0.06 4.33-0.06L4.33-0.06L4.33-0.06Q5.00-0.06 5.42 0.38L5.42 0.38L5.42 0.38Q5.85 0.83 5.85 1.51L5.85 1.51L5.85 1.51Q5.85 1.88 5.60 2.13L5.60 2.13L5.60 2.13Q5.35 2.39 4.98 2.39ZM8.08 9.83L8.08 9.83L8.08 9.83Q7.50 9.83 6.99 9.60L6.99 9.60L6.99 9.60Q6.47 9.37 6.08 8.98L6.08 8.98L6.08 8.98Q5.70 8.60 5.47 8.08L5.47 8.08L5.47 8.08Q5.24 7.56 5.24 6.99L5.24 6.99L5.24 6.99Q5.24 6.40 5.46 5.88L5.46 5.88L5.46 5.88Q5.68 5.36 6.07 4.98L6.07 4.98L6.07 4.98Q6.45 4.59 6.97 4.37L6.97 4.37L6.97 4.37Q7.49 4.14 8.08 4.14L8.08 4.14L8.08 4.14Q8.67 4.14 9.18 4.37L9.18 4.37L9.18 4.37Q9.70 4.59 10.09 4.98L10.09 4.98L10.09 4.98Q10.47 5.36 10.70 5.88L10.70 5.88L10.70 5.88Q10.92 6.40 10.92 6.99L10.92 6.99L10.92 6.99Q10.92 7.57 10.70 8.08L10.70 8.08L10.70 8.08Q10.47 8.60 10.08 8.99L10.08 8.99L10.08 8.99Q9.69 9.38 9.18 9.60L9.18 9.60L9.18 9.60Q8.67 9.83 8.08 9.83ZM9.20 8.30L9.20 5.67L9.20 5.67Q9.20 5.21 8.87 4.88L8.87 4.88L8.87 4.88Q8.54 4.55 8.08 4.55L8.08 4.55L8.08 4.55Q7.62 4.55 7.29 4.88L7.29 4.88L7.29 4.88Q6.96 5.21 6.96 5.67L6.96 5.67L6.96 8.30L6.96 8.30Q6.96 8.76 7.29 9.09L7.29 9.09L7.29 9.09Q7.62 9.42 8.08 9.42L8.08 9.42L8.08 9.42Q8.54 9.42 8.87 9.09L8.87 9.09L8.87 9.09Q9.20 8.76 9.20 8.30L9.20 8.30ZM14.53 9.83L14.53 9.83L14.53 9.83Q13.96 9.83 13.44 9.60L13.44 9.60L13.44 9.60Q12.92 9.37 12.54 8.98L12.54 8.98L12.54 8.98Q12.15 8.60 11.92 8.08L11.92 8.08L11.92 8.08Q11.69 7.56 11.69 6.99L11.69 6.99L11.69 6.99Q11.69 6.40 11.91 5.88L11.91 5.88L11.91 5.88Q12.14 5.36 12.52 4.98L12.52 4.98L12.52 4.98Q12.91 4.59 13.43 4.37L13.43 4.37L13.43 4.37Q13.94 4.14 14.53 4.14L14.53 4.14L14.53 4.14Q15.12 4.14 15.64 4.37L15.64 4.37L15.64 4.37Q16.16 4.59 16.54 4.98L16.54 4.98L16.54 4.98Q16.93 5.36 17.15 5.88L17.15 5.88L17.15 5.88Q17.37 6.40 17.37 6.99L17.37 6.99L17.37 6.99Q17.37 7.57 17.15 8.08L17.15 8.08L17.15 8.08Q16.93 8.60 16.53 8.99L16.53 8.99L16.53 8.99Q16.14 9.38 15.63 9.60L15.63 9.60L15.63 9.60Q15.12 9.83 14.53 9.83ZM15.65 8.30L15.65 5.67L15.65 5.67Q15.65 5.21 15.32 4.88L15.32 4.88L15.32 4.88Q14.99 4.55 14.53 4.55L14.53 4.55L14.53 4.55Q14.07 4.55 13.74 4.88L13.74 4.88L13.74 4.88Q13.41 5.21 13.41 5.67L13.41 5.67L13.41 8.30L13.41 8.30Q13.41 8.76 13.74 9.09L13.74 9.09L13.74 9.09Q14.07 9.42 14.53 9.42L14.53 9.42L14.53 9.42Q14.99 9.42 15.32 9.09L15.32 9.09L15.32 9.09Q15.65 8.76 15.65 8.30L15.65 8.30ZM25.19 9.83L21.01 9.83L21.01 9.83Q20.43 9.83 19.90 9.60L19.90 9.60L19.90 9.60Q19.38 9.37 18.98 8.97L18.98 8.97L18.98 8.97Q18.59 8.58 18.37 8.05L18.37 8.05L18.37 8.05Q18.14 7.52 18.14 6.92L18.14 6.92L18.14 6.92Q18.14 6.30 18.36 5.77L18.36 5.77L18.36 5.77Q18.58 5.24 18.97 4.84L18.97 4.84L18.97 4.84Q19.36 4.45 19.88 4.23L19.88 4.23L19.88 4.23Q20.40 4.00 21.01 4.00L21.01 4.00L22.15 4.00L22.15 0.36L20.85 0.36L20.85-0.04L23.88-0.04L23.88 9.41L25.19 9.41L25.19 9.83ZM22.15 9.41L22.15 4.42L21.01 4.42L21.01 4.42Q20.80 4.42 20.60 4.52L20.60 4.52L20.60 4.52Q20.40 4.62 20.24 4.78L20.24 4.78L20.24 4.78Q20.08 4.94 19.98 5.15L19.98 5.15L19.98 5.15Q19.88 5.36 19.88 5.57L19.88 5.57L19.88 8.27L19.88 8.27Q19.88 8.75 20.22 9.09L20.22 9.09L20.22 9.09Q20.55 9.42 21.03 9.42L21.03 9.42L21.03 9.42Q21.31 9.42 21.59 9.41L21.59 9.41L21.59 9.41Q21.87 9.41 22.15 9.41L22.15 9.41Z"></path></g><defs data-v-fde0c5aa=""><!----></defs><g data-v-fde0c5aa="" id="e073cc38-69e9-42b0-8dac-14dfe89a5947" stroke="none" fill="#B3A09D" transform="matrix(3.298835868305583,0,0,3.298835868305583,40,97.21862453410316)"><path d="M19.88 8.935L23.796 16l-3.915 7.065H12.12L8.204 16l3.915-7.065h7.761m.59-1h-8.94L7.061 16l4.47 8.065h8.939L24.939 16 20.47 7.935zM4.356 4.15v23.7H1V4.15h3.356m1-1H0v25.7h5.356V3.15zM31 4.15v23.7h-3.356V4.15H31m1-1h-5.356v25.7H32V3.15z"></path></g><defs data-v-fde0c5aa=""><!----></defs><g data-v-fde0c5aa="" id="9083c381-6aa3-4bd3-8080-0988381e4a46" fill="#B3A09D" transform="matrix(0.3467584611407736,0,0,0.3467584611407736,157.54674547148755,168.40897645977827)"><path d="M6.58 10.35L6.58 10.35L6.58 10.35Q7.63 9.20 8.46 7.91L8.46 7.91L8.46 7.91Q9.30 6.62 10.01 5.01L10.01 5.01L10.01 5.01Q10.37 5.05 10.71 5.21L10.71 5.21L10.71 5.21Q11.05 5.36 11.24 5.56L11.24 5.56L11.24 5.56Q10.47 6.48 9.85 7.24L9.85 7.24L9.85 7.24Q9.23 7.99 8.71 8.66L8.71 8.66L8.71 8.66Q8.19 9.32 7.75 9.93L7.75 9.93L7.75 9.93Q7.31 10.54 6.89 11.16L6.89 11.16L6.89 11.16Q6.68 11.87 6.50 12.60L6.50 12.60L6.50 12.60Q6.31 13.33 6.17 13.99L6.17 13.99L6.17 13.99Q6.03 14.66 5.96 15.22L5.96 15.22L5.96 15.22Q5.88 15.79 5.88 16.20L5.88 16.20L5.88 16.20Q5.73 16.20 5.39 16.14L5.39 16.14L5.39 16.14Q5.05 16.07 4.70 15.99L4.70 15.99L4.70 15.99Q4.35 15.90 4.07 15.82L4.07 15.82L4.07 15.82Q3.78 15.74 3.72 15.68L3.72 15.68L3.72 15.68Q3.95 15.30 4.17 14.75L4.17 14.75L4.17 14.75Q4.38 14.20 4.59 13.59L4.59 13.59L4.59 13.59Q4.80 12.98 5.00 12.36L5.00 12.36L5.00 12.36Q5.19 11.73 5.36 11.20L5.36 11.20L5.36 11.20Q5.01 10.11 4.68 9.15L4.68 9.15L4.68 9.15Q4.35 8.19 4.05 7.41L4.05 7.41L4.05 7.41Q3.74 6.64 3.46 6.08L3.46 6.08L3.46 6.08Q3.18 5.52 2.93 5.22L2.93 5.22L2.93 5.22Q3.07 5.17 3.35 5.11L3.35 5.11L3.35 5.11Q3.64 5.05 3.98 5.00L3.98 5.00L3.98 5.00Q4.33 4.94 4.68 4.91L4.68 4.91L4.68 4.91Q5.04 4.87 5.32 4.86L5.32 4.86L5.32 4.86Q5.32 5.21 5.38 5.71L5.38 5.71L5.38 5.71Q5.45 6.22 5.55 6.79L5.55 6.79L5.55 6.79Q5.66 7.36 5.80 7.95L5.80 7.95L5.80 7.95Q5.94 8.54 6.08 9.03L6.08 9.03L6.08 9.03Q6.22 9.52 6.35 9.88L6.35 9.88L6.35 9.88Q6.48 10.23 6.58 10.35ZM22.30 5.75L22.30 5.75L22.30 5.75Q21.69 6.58 21.18 7.57L21.18 7.57L21.18 7.57Q20.68 8.57 20.32 9.61L20.32 9.61L20.32 9.61Q19.96 10.65 19.77 11.67L19.77 11.67L19.77 11.67Q19.59 12.68 19.59 13.57L19.59 13.57L19.59 13.57Q19.59 14.66 19.91 15.15L19.91 15.15L19.91 15.15Q20.23 15.64 21.01 15.64L21.01 15.64L21.01 15.64Q21.92 15.64 22.61 15.00L22.61 15.00L22.61 15.00Q23.30 14.36 23.90 13.24L23.90 13.24L23.90 13.24Q24.29 12.52 24.57 11.65L24.57 11.65L24.57 11.65Q24.85 10.78 25.02 9.86L25.02 9.86L25.02 9.86Q25.20 8.95 25.28 8.02L25.28 8.02L25.28 8.02Q25.37 7.08 25.37 6.23L25.37 6.23L25.37 6.23Q25.37 5.68 25.35 5.43L25.35 5.43L25.35 5.43Q25.34 5.18 25.31 5.03L25.31 5.03L25.31 5.03Q25.35 5.03 25.52 5.05L25.52 5.05L25.52 5.05Q25.69 5.08 25.91 5.12L25.91 5.12L25.91 5.12Q26.12 5.17 26.34 5.24L26.34 5.24L26.34 5.24Q26.56 5.31 26.71 5.39L26.71 5.39L26.71 5.39Q26.64 6.45 26.45 7.59L26.45 7.59L26.45 7.59Q26.26 8.72 25.96 9.83L25.96 9.83L25.96 9.83Q25.65 10.93 25.24 11.96L25.24 11.96L25.24 11.96Q24.84 12.98 24.33 13.79L24.33 13.79L24.33 13.79Q23.59 14.99 22.67 15.67L22.67 15.67L22.67 15.67Q21.74 16.35 20.48 16.35L20.48 16.35L20.48 16.35Q19.19 16.35 18.48 15.60L18.48 15.60L18.48 15.60Q17.77 14.85 17.77 13.33L17.77 13.33L17.77 13.33Q17.77 12.45 17.96 11.33L17.96 11.33L17.96 11.33Q18.16 10.22 18.49 9.07L18.49 9.07L18.49 9.07Q18.82 7.91 19.25 6.81L19.25 6.81L19.25 6.81Q19.68 5.71 20.16 4.84L20.16 4.84L20.16 4.84Q20.40 4.86 20.72 4.94L20.72 4.94L20.72 4.94Q21.04 5.03 21.35 5.16L21.35 5.16L21.35 5.16Q21.66 5.29 21.92 5.45L21.92 5.45L21.92 5.45Q22.18 5.61 22.30 5.75ZM39.47 16.21L39.47 16.21L39.47 16.21Q39.44 16.23 39.41 16.23L39.41 16.23L39.41 16.23Q39.38 16.23 39.30 16.23L39.30 16.23L39.30 16.23Q39.10 16.23 38.84 16.16L38.84 16.16L38.84 16.16Q38.58 16.10 38.34 16.01L38.34 16.01L38.34 16.01Q38.09 15.92 37.92 15.81L37.92 15.81L37.92 15.81Q37.74 15.69 37.70 15.61L37.70 15.61L37.70 15.61Q37.69 15.41 37.69 15.20L37.69 15.20L37.69 15.20Q37.69 14.99 37.69 14.80L37.69 14.80L37.69 14.80Q37.69 13.23 37.92 11.52L37.92 11.52L37.92 11.52Q38.15 9.81 38.68 7.83L38.68 7.83L38.68 7.83Q38.74 7.63 38.80 7.33L38.80 7.33L38.80 7.33Q38.86 7.03 38.93 6.68L38.93 6.68L38.93 6.68Q38.60 6.94 38.14 7.53L38.14 7.53L38.14 7.53Q37.67 8.11 37.16 8.90L37.16 8.90L37.16 8.90Q36.65 9.69 36.14 10.63L36.14 10.63L36.14 10.63Q35.63 11.58 35.21 12.55L35.21 12.55L35.21 12.55Q34.79 13.52 34.49 14.48L34.49 14.48L34.49 14.48Q34.19 15.43 34.12 16.24L34.12 16.24L34.12 16.24Q33.45 16.04 33.19 15.85L33.19 15.85L33.19 15.85Q32.93 15.65 32.93 15.37L32.93 15.37L32.93 15.37Q32.93 15.12 33.08 14.66L33.08 14.66L33.08 14.66Q33.24 14.20 33.52 13.57L33.52 13.57L33.52 13.57Q33.80 12.94 34.20 12.16L34.20 12.16L34.20 12.16Q34.61 11.38 35.10 10.49L35.10 10.49L35.10 10.49Q35.66 9.46 36.20 8.57L36.20 8.57L36.20 8.57Q36.74 7.67 37.25 6.94L37.25 6.94L37.25 6.94Q37.77 6.22 38.27 5.68L38.27 5.68L38.27 5.68Q38.77 5.15 39.26 4.87L39.26 4.87L39.26 4.87Q39.45 4.87 39.78 4.97L39.78 4.97L39.78 4.97Q40.11 5.07 40.43 5.21L40.43 5.21L40.43 5.21Q40.74 5.35 40.98 5.49L40.98 5.49L40.98 5.49Q41.23 5.64 41.26 5.74L41.26 5.74L41.26 5.74Q41.06 6.13 40.80 6.92L40.80 6.92L40.80 6.92Q40.53 7.70 40.26 8.69L40.26 8.69L40.26 8.69Q39.98 9.69 39.74 10.80L39.74 10.80L39.74 10.80Q39.49 11.91 39.35 12.94L39.35 12.94L39.35 12.94Q39.68 12.17 40.10 11.33L40.10 11.33L40.10 11.33Q40.53 10.50 41.01 9.68L41.01 9.68L41.01 9.68Q41.48 8.86 41.98 8.09L41.98 8.09L41.98 8.09Q42.48 7.32 42.95 6.69L42.95 6.69L42.95 6.69Q43.43 6.05 43.84 5.57L43.84 5.57L43.84 5.57Q44.25 5.10 44.58 4.87L44.58 4.87L44.58 4.87Q44.77 4.87 45.10 4.97L45.10 4.97L45.10 4.97Q45.43 5.07 45.75 5.21L45.75 5.21L45.75 5.21Q46.06 5.35 46.31 5.49L46.31 5.49L46.31 5.49Q46.55 5.64 46.58 5.74L46.58 5.74L46.58 5.74Q46.13 6.54 45.79 7.69L45.79 7.69L45.79 7.69Q45.46 8.83 45.23 10.09L45.23 10.09L45.23 10.09Q45.00 11.35 44.88 12.59L44.88 12.59L44.88 12.59Q44.76 13.83 44.76 14.81L44.76 14.81L44.76 14.81Q44.76 15.13 44.76 15.48L44.76 15.48L44.76 15.48Q44.76 15.83 44.79 16.21L44.79 16.21L44.79 16.21Q44.59 16.21 44.32 16.16L44.32 16.16L44.32 16.16Q44.04 16.11 43.79 16.03L43.79 16.03L43.79 16.03Q43.53 15.95 43.32 15.84L43.32 15.84L43.32 15.84Q43.11 15.74 43.02 15.61L43.02 15.61L43.02 15.61Q43.01 15.41 43.01 15.20L43.01 15.20L43.01 15.20Q43.01 14.99 43.01 14.80L43.01 14.80L43.01 14.80Q43.01 13.23 43.24 11.52L43.24 11.52L43.24 11.52Q43.47 9.81 44.00 7.83L44.00 7.83L44.00 7.83Q44.06 7.63 44.13 7.29L44.13 7.29L44.13 7.29Q44.20 6.96 44.27 6.59L44.27 6.59L44.27 6.59Q43.88 6.79 43.38 7.34L43.38 7.34L43.38 7.34Q42.88 7.90 42.37 8.69L42.37 8.69L42.37 8.69Q41.86 9.48 41.36 10.44L41.36 10.44L41.36 10.44Q40.87 11.41 40.47 12.41L40.47 12.41L40.47 12.41Q40.07 13.41 39.80 14.40L39.80 14.40L39.80 14.40Q39.52 15.39 39.47 16.21ZM59.65 16.21L59.65 16.21L59.65 16.21Q59.63 16.23 59.60 16.23L59.60 16.23L59.60 16.23Q59.57 16.23 59.49 16.23L59.49 16.23L59.49 16.23Q59.29 16.23 59.03 16.16L59.03 16.16L59.03 16.16Q58.77 16.10 58.53 16.01L58.53 16.01L58.53 16.01Q58.28 15.92 58.11 15.81L58.11 15.81L58.11 15.81Q57.93 15.69 57.89 15.61L57.89 15.61L57.89 15.61Q57.88 15.41 57.88 15.20L57.88 15.20L57.88 15.20Q57.88 14.99 57.88 14.80L57.88 14.80L57.88 14.80Q57.88 13.23 58.11 11.52L58.11 11.52L58.11 11.52Q58.34 9.81 58.87 7.83L58.87 7.83L58.87 7.83Q58.93 7.63 58.99 7.33L58.99 7.33L58.99 7.33Q59.05 7.03 59.12 6.68L59.12 6.68L59.12 6.68Q58.79 6.94 58.32 7.53L58.32 7.53L58.32 7.53Q57.86 8.11 57.35 8.90L57.35 8.90L57.35 8.90Q56.84 9.69 56.33 10.63L56.33 10.63L56.33 10.63Q55.82 11.58 55.40 12.55L55.40 12.55L55.40 12.55Q54.98 13.52 54.68 14.48L54.68 14.48L54.68 14.48Q54.38 15.43 54.31 16.24L54.31 16.24L54.31 16.24Q53.63 16.04 53.38 15.85L53.38 15.85L53.38 15.85Q53.12 15.65 53.12 15.37L53.12 15.37L53.12 15.37Q53.12 15.12 53.27 14.66L53.27 14.66L53.27 14.66Q53.42 14.20 53.70 13.57L53.70 13.57L53.70 13.57Q53.98 12.94 54.39 12.16L54.39 12.16L54.39 12.16Q54.80 11.38 55.29 10.49L55.29 10.49L55.29 10.49Q55.85 9.46 56.39 8.57L56.39 8.57L56.39 8.57Q56.92 7.67 57.44 6.94L57.44 6.94L57.44 6.94Q57.96 6.22 58.46 5.68L58.46 5.68L58.46 5.68Q58.95 5.15 59.44 4.87L59.44 4.87L59.44 4.87Q59.64 4.87 59.97 4.97L59.97 4.97L59.97 4.97Q60.30 5.07 60.61 5.21L60.61 5.21L60.61 5.21Q60.93 5.35 61.17 5.49L61.17 5.49L61.17 5.49Q61.42 5.64 61.45 5.74L61.45 5.74L61.45 5.74Q61.25 6.13 60.98 6.92L60.98 6.92L60.98 6.92Q60.72 7.70 60.45 8.69L60.45 8.69L60.45 8.69Q60.17 9.69 59.93 10.80L59.93 10.80L59.93 10.80Q59.68 11.91 59.54 12.94L59.54 12.94L59.54 12.94Q59.86 12.17 60.29 11.33L60.29 11.33L60.29 11.33Q60.72 10.50 61.19 9.68L61.19 9.68L61.19 9.68Q61.67 8.86 62.17 8.09L62.17 8.09L62.17 8.09Q62.66 7.32 63.14 6.69L63.14 6.69L63.14 6.69Q63.62 6.05 64.03 5.57L64.03 5.57L64.03 5.57Q64.44 5.10 64.76 4.87L64.76 4.87L64.76 4.87Q64.96 4.87 65.29 4.97L65.29 4.97L65.29 4.97Q65.62 5.07 65.93 5.21L65.93 5.21L65.93 5.21Q66.25 5.35 66.49 5.49L66.49 5.49L66.49 5.49Q66.74 5.64 66.77 5.74L66.77 5.74L66.77 5.74Q66.32 6.54 65.98 7.69L65.98 7.69L65.98 7.69Q65.65 8.83 65.42 10.09L65.42 10.09L65.42 10.09Q65.18 11.35 65.07 12.59L65.07 12.59L65.07 12.59Q64.95 13.83 64.95 14.81L64.95 14.81L64.95 14.81Q64.95 15.13 64.95 15.48L64.95 15.48L64.95 15.48Q64.95 15.83 64.97 16.21L64.97 16.21L64.97 16.21Q64.78 16.21 64.51 16.16L64.51 16.16L64.51 16.16Q64.23 16.11 63.97 16.03L63.97 16.03L63.97 16.03Q63.71 15.95 63.50 15.84L63.50 15.84L63.50 15.84Q63.29 15.74 63.21 15.61L63.21 15.61L63.21 15.61Q63.20 15.41 63.20 15.20L63.20 15.20L63.20 15.20Q63.20 14.99 63.20 14.80L63.20 14.80L63.20 14.80Q63.20 13.23 63.43 11.52L63.43 11.52L63.43 11.52Q63.66 9.81 64.19 7.83L64.19 7.83L64.19 7.83Q64.25 7.63 64.32 7.29L64.32 7.29L64.32 7.29Q64.39 6.96 64.46 6.59L64.46 6.59L64.46 6.59Q64.06 6.79 63.57 7.34L63.57 7.34L63.57 7.34Q63.07 7.90 62.56 8.69L62.56 8.69L62.56 8.69Q62.05 9.48 61.55 10.44L61.55 10.44L61.55 10.44Q61.05 11.41 60.66 12.41L60.66 12.41L60.66 12.41Q60.26 13.41 59.98 14.40L59.98 14.40L59.98 14.40Q59.71 15.39 59.65 16.21ZM78.60 10.35L78.60 10.35L78.60 10.35Q79.65 9.20 80.48 7.91L80.48 7.91L80.48 7.91Q81.31 6.62 82.03 5.01L82.03 5.01L82.03 5.01Q82.39 5.05 82.73 5.21L82.73 5.21L82.73 5.21Q83.06 5.36 83.26 5.56L83.26 5.56L83.26 5.56Q82.49 6.48 81.87 7.24L81.87 7.24L81.87 7.24Q81.24 7.99 80.72 8.66L80.72 8.66L80.72 8.66Q80.21 9.32 79.77 9.93L79.77 9.93L79.77 9.93Q79.32 10.54 78.90 11.16L78.90 11.16L78.90 11.16Q78.69 11.87 78.51 12.60L78.51 12.60L78.51 12.60Q78.33 13.33 78.19 13.99L78.19 13.99L78.19 13.99Q78.05 14.66 77.97 15.22L77.97 15.22L77.97 15.22Q77.90 15.79 77.90 16.20L77.90 16.20L77.90 16.20Q77.74 16.20 77.41 16.14L77.41 16.14L77.41 16.14Q77.07 16.07 76.72 15.99L76.72 15.99L76.72 15.99Q76.37 15.90 76.08 15.82L76.08 15.82L76.08 15.82Q75.80 15.74 75.74 15.68L75.74 15.68L75.74 15.68Q75.96 15.30 76.18 14.75L76.18 14.75L76.18 14.75Q76.40 14.20 76.61 13.59L76.61 13.59L76.61 13.59Q76.82 12.98 77.01 12.36L77.01 12.36L77.01 12.36Q77.21 11.73 77.38 11.20L77.38 11.20L77.38 11.20Q77.03 10.11 76.70 9.15L76.70 9.15L76.70 9.15Q76.37 8.19 76.06 7.41L76.06 7.41L76.06 7.41Q75.75 6.64 75.47 6.08L75.47 6.08L75.47 6.08Q75.19 5.52 74.94 5.22L74.94 5.22L74.94 5.22Q75.08 5.17 75.37 5.11L75.37 5.11L75.37 5.11Q75.66 5.05 76.00 5.00L76.00 5.00L76.00 5.00Q76.34 4.94 76.70 4.91L76.70 4.91L76.70 4.91Q77.06 4.87 77.34 4.86L77.34 4.86L77.34 4.86Q77.34 5.21 77.40 5.71L77.40 5.71L77.40 5.71Q77.46 6.22 77.57 6.79L77.57 6.79L77.57 6.79Q77.67 7.36 77.81 7.95L77.81 7.95L77.81 7.95Q77.95 8.54 78.09 9.03L78.09 9.03L78.09 9.03Q78.23 9.52 78.37 9.88L78.37 9.88L78.37 9.88Q78.50 10.23 78.60 10.35ZM99.76 14.38L99.76 14.38L99.76 14.38Q99.76 13.87 99.93 13.07L99.93 13.07L99.93 13.07Q100.09 12.26 100.35 11.33L100.35 11.33L100.35 11.33Q100.60 10.40 100.94 9.43L100.94 9.43L100.94 9.43Q101.28 8.46 101.63 7.60L101.63 7.60L101.63 7.60Q101.98 6.75 102.31 6.10L102.31 6.10L102.31 6.10Q102.65 5.46 102.91 5.18L102.91 5.18L102.91 5.18Q103.05 5.19 103.29 5.29L103.29 5.29L103.29 5.29Q103.52 5.38 103.75 5.50L103.75 5.50L103.75 5.50Q103.99 5.63 104.19 5.78L104.19 5.78L104.19 5.78Q104.38 5.92 104.44 6.05L104.44 6.05L104.44 6.05Q104.03 6.41 103.64 7.15L103.64 7.15L103.64 7.15Q103.24 7.88 102.87 8.82L102.87 8.82L102.87 8.82Q102.49 9.76 102.17 10.80L102.17 10.80L102.17 10.80Q101.85 11.84 101.61 12.82L101.61 12.82L101.61 12.82Q101.37 13.80 101.24 14.64L101.24 14.64L101.24 14.64Q101.11 15.48 101.11 16.00L101.11 16.00L101.11 16.00Q101.11 16.24 101.15 16.30L101.15 16.30L101.15 16.30Q100.84 16.28 100.70 16.19L100.70 16.19L100.70 16.19Q100.56 16.10 100.49 16.00L100.49 16.00L100.49 16.00Q100.41 15.89 100.35 15.79L100.35 15.79L100.35 15.79Q100.28 15.68 100.16 15.62L100.16 15.62L100.16 15.62Q100.06 15.58 99.99 15.43L99.99 15.43L99.99 15.43Q99.92 15.27 99.87 15.09L99.87 15.09L99.87 15.09Q99.82 14.90 99.79 14.70L99.79 14.70L99.79 14.70Q99.76 14.50 99.76 14.38ZM112 16.24L112 16.24L112 16.24Q111.20 16.00 110.92 15.79L110.92 15.79L110.92 15.79Q110.64 15.57 110.64 15.19L110.64 15.19L110.64 15.19Q110.64 14.77 110.84 14.01L110.84 14.01L110.84 14.01Q111.03 13.24 111.35 12.31L111.35 12.31L111.35 12.31Q111.66 11.37 112.07 10.35L112.07 10.35L112.07 10.35Q112.48 9.32 112.90 8.39L112.90 8.39L112.90 8.39Q113.32 7.45 113.72 6.67L113.72 6.67L113.72 6.67Q114.11 5.89 114.42 5.46L114.42 5.46L114.32 4.87L114.32 4.87Q114.52 4.87 114.87 4.97L114.87 4.97L114.87 4.97Q115.22 5.07 115.58 5.21L115.58 5.21L115.58 5.21Q115.93 5.35 116.21 5.49L116.21 5.49L116.21 5.49Q116.48 5.64 116.51 5.74L116.51 5.74L116.51 5.74Q116.44 6.08 116.40 6.76L116.40 6.76L116.40 6.76Q116.35 7.43 116.35 8.20L116.35 8.20L116.35 8.20Q116.35 9.73 116.47 11.19L116.47 11.19L116.47 11.19Q116.59 12.66 117.03 14.17L117.03 14.17L117.03 14.17Q117.25 13.05 117.51 11.94L117.51 11.94L117.51 11.94Q117.77 10.82 118.05 9.81L118.05 9.81L118.05 9.81Q118.33 8.79 118.61 7.92L118.61 7.92L118.61 7.92Q118.89 7.06 119.15 6.40L119.15 6.40L119.15 6.40Q119.41 5.75 119.63 5.38L119.63 5.38L119.63 5.38Q119.85 5.01 120.04 4.98L120.04 4.98L120.04 4.98Q120.19 5.01 120.37 5.10L120.37 5.10L120.37 5.10Q120.55 5.19 120.72 5.32L120.72 5.32L120.72 5.32Q120.89 5.45 121.03 5.60L121.03 5.60L121.03 5.60Q121.17 5.75 121.25 5.91L121.25 5.91L121.25 5.91Q120.81 6.09 120.37 6.76L120.37 6.76L120.37 6.76Q119.92 7.43 119.53 8.39L119.53 8.39L119.53 8.39Q119.13 9.35 118.78 10.47L118.78 10.47L118.78 10.47Q118.44 11.59 118.18 12.68L118.18 12.68L118.18 12.68Q117.92 13.76 117.78 14.69L117.78 14.69L117.78 14.69Q117.63 15.61 117.61 16.17L117.61 16.17L117.61 16.17Q117.61 16.20 117.63 16.21L117.63 16.21L117.63 16.21Q117.59 16.23 117.54 16.23L117.54 16.23L117.54 16.23Q117.49 16.23 117.45 16.23L117.45 16.23L117.45 16.23Q116.80 16.23 116.31 16.07L116.31 16.07L116.31 16.07Q115.81 15.90 115.65 15.61L115.65 15.61L115.65 15.61Q115.36 14.43 115.16 13.34L115.16 13.34L115.16 13.34Q114.97 12.25 114.84 11.16L114.84 11.16L114.84 11.16Q114.70 10.07 114.63 8.95L114.63 8.95L114.63 8.95Q114.55 7.84 114.51 6.62L114.51 6.62L114.51 6.62Q114.24 7.04 113.95 7.72L113.95 7.72L113.95 7.72Q113.65 8.40 113.37 9.21L113.37 9.21L113.37 9.21Q113.09 10.02 112.83 10.92L112.83 10.92L112.83 10.92Q112.57 11.82 112.38 12.67L112.38 12.67L112.38 12.67Q112.18 13.52 112.07 14.29L112.07 14.29L112.07 14.29Q111.96 15.05 111.96 15.61L111.96 15.61L111.96 15.61Q111.96 15.90 111.97 16.03L111.97 16.03L111.97 16.03Q111.97 16.16 112 16.24ZM142.81 10.35L142.81 10.35L142.81 10.35Q143.86 9.20 144.70 7.91L144.70 7.91L144.70 7.91Q145.53 6.62 146.24 5.01L146.24 5.01L146.24 5.01Q146.61 5.05 146.94 5.21L146.94 5.21L146.94 5.21Q147.28 5.36 147.48 5.56L147.48 5.56L147.48 5.56Q146.71 6.48 146.08 7.24L146.08 7.24L146.08 7.24Q145.46 7.99 144.94 8.66L144.94 8.66L144.94 8.66Q144.42 9.32 143.98 9.93L143.98 9.93L143.98 9.93Q143.54 10.54 143.12 11.16L143.12 11.16L143.12 11.16Q142.91 11.87 142.73 12.60L142.73 12.60L142.73 12.60Q142.55 13.33 142.41 13.99L142.41 13.99L142.41 13.99Q142.27 14.66 142.19 15.22L142.19 15.22L142.19 15.22Q142.11 15.79 142.11 16.20L142.11 16.20L142.11 16.20Q141.96 16.20 141.62 16.14L141.62 16.14L141.62 16.14Q141.29 16.07 140.94 15.99L140.94 15.99L140.94 15.99Q140.59 15.90 140.30 15.82L140.30 15.82L140.30 15.82Q140.01 15.74 139.96 15.68L139.96 15.68L139.96 15.68Q140.18 15.30 140.40 14.75L140.40 14.75L140.40 14.75Q140.62 14.20 140.83 13.59L140.83 13.59L140.83 13.59Q141.04 12.98 141.23 12.36L141.23 12.36L141.23 12.36Q141.43 11.73 141.60 11.20L141.60 11.20L141.60 11.20Q141.25 10.11 140.92 9.15L140.92 9.15L140.92 9.15Q140.59 8.19 140.28 7.41L140.28 7.41L140.28 7.41Q139.97 6.64 139.69 6.08L139.69 6.08L139.69 6.08Q139.41 5.52 139.16 5.22L139.16 5.22L139.16 5.22Q139.30 5.17 139.59 5.11L139.59 5.11L139.59 5.11Q139.87 5.05 140.22 5.00L140.22 5.00L140.22 5.00Q140.56 4.94 140.92 4.91L140.92 4.91L140.92 4.91Q141.27 4.87 141.55 4.86L141.55 4.86L141.55 4.86Q141.55 5.21 141.62 5.71L141.62 5.71L141.62 5.71Q141.68 6.22 141.78 6.79L141.78 6.79L141.78 6.79Q141.89 7.36 142.03 7.95L142.03 7.95L142.03 7.95Q142.17 8.54 142.31 9.03L142.31 9.03L142.31 9.03Q142.45 9.52 142.58 9.88L142.58 9.88L142.58 9.88Q142.72 10.23 142.81 10.35ZM159.46 4.98L159.46 4.98L159.46 4.98Q159.73 5.10 160.01 5.27L160.01 5.27L160.01 5.27Q160.29 5.45 160.52 5.63L160.52 5.63L160.52 5.63Q160.76 5.81 160.92 5.98L160.92 5.98L160.92 5.98Q161.08 6.16 161.10 6.27L161.10 6.27L161.10 6.27Q160.86 6.22 160.62 6.20L160.62 6.20L160.62 6.20Q160.38 6.17 160.19 6.17L160.19 6.17L160.19 6.17Q159.56 6.17 158.94 6.48L158.94 6.48L158.94 6.48Q158.31 6.79 157.75 7.32L157.75 7.32L157.75 7.32Q157.19 7.85 156.72 8.57L156.72 8.57L156.72 8.57Q156.24 9.28 155.90 10.09L155.90 10.09L155.90 10.09Q155.55 10.91 155.36 11.77L155.36 11.77L155.36 11.77Q155.16 12.64 155.16 13.48L155.16 13.48L155.16 13.48Q155.16 14.57 155.53 15.11L155.53 15.11L155.53 15.11Q155.89 15.64 156.59 15.64L156.59 15.64L156.59 15.64Q156.93 15.64 157.32 15.51L157.32 15.51L157.32 15.51Q157.71 15.37 158.12 15.13L158.12 15.13L158.12 15.13Q158.52 14.90 158.91 14.56L158.91 14.56L158.91 14.56Q159.31 14.22 159.64 13.82L159.64 13.82L159.64 13.82Q160.13 13.23 160.52 12.48L160.52 12.48L160.52 12.48Q160.92 11.73 161.19 10.89L161.19 10.89L161.19 10.89Q161.46 10.05 161.61 9.16L161.61 9.16L161.61 9.16Q161.76 8.27 161.76 7.42L161.76 7.42L161.76 7.42Q161.76 7.08 161.74 6.85L161.74 6.85L161.74 6.85Q161.73 6.62 161.71 6.46L161.71 6.46L161.71 6.46Q161.69 6.30 161.67 6.20L161.67 6.20L161.67 6.20Q161.66 6.10 161.64 6.03L161.64 6.03L161.64 6.03Q161.81 6.12 162.02 6.24L162.02 6.24L162.02 6.24Q162.22 6.36 162.39 6.59L162.39 6.59L162.39 6.59Q162.57 6.82 162.69 7.20L162.69 7.20L162.69 7.20Q162.81 7.57 162.81 8.18L162.81 8.18L162.81 8.18Q162.81 9.16 162.58 10.10L162.58 10.10L162.58 10.10Q162.34 11.05 161.93 11.90L161.93 11.90L161.93 11.90Q161.52 12.75 160.96 13.50L160.96 13.50L160.96 13.50Q160.40 14.24 159.75 14.80L159.75 14.80L159.75 14.80Q158.91 15.54 157.96 15.95L157.96 15.95L157.96 15.95Q157.01 16.35 156.13 16.35L156.13 16.35L156.13 16.35Q154.84 16.35 154.16 15.53L154.16 15.53L154.16 15.53Q153.48 14.71 153.48 13.12L153.48 13.12L153.48 13.12Q153.48 12.26 153.67 11.31L153.67 11.31L153.67 11.31Q153.86 10.36 154.20 9.44L154.20 9.44L154.20 9.44Q154.55 8.51 155.02 7.68L155.02 7.68L155.02 7.68Q155.50 6.85 156.07 6.21L156.07 6.21L156.07 6.21Q156.63 5.57 157.28 5.19L157.28 5.19L157.28 5.19Q157.93 4.82 158.62 4.82L158.62 4.82L158.62 4.82Q158.84 4.82 159.04 4.85L159.04 4.85L159.04 4.85Q159.24 4.89 159.46 4.98ZM175.50 5.75L175.50 5.75L175.50 5.75Q174.89 6.58 174.38 7.57L174.38 7.57L174.38 7.57Q173.88 8.57 173.52 9.61L173.52 9.61L173.52 9.61Q173.17 10.65 172.98 11.67L172.98 11.67L172.98 11.67Q172.79 12.68 172.79 13.57L172.79 13.57L172.79 13.57Q172.79 14.66 173.11 15.15L173.11 15.15L173.11 15.15Q173.43 15.64 174.22 15.64L174.22 15.64L174.22 15.64Q175.13 15.64 175.81 15.00L175.81 15.00L175.81 15.00Q176.50 14.36 177.10 13.24L177.10 13.24L177.10 13.24Q177.49 12.52 177.77 11.65L177.77 11.65L177.77 11.65Q178.05 10.78 178.23 9.86L178.23 9.86L178.23 9.86Q178.40 8.95 178.49 8.02L178.49 8.02L178.49 8.02Q178.57 7.08 178.57 6.23L178.57 6.23L178.57 6.23Q178.57 5.68 178.56 5.43L178.56 5.43L178.56 5.43Q178.54 5.18 178.51 5.03L178.51 5.03L178.51 5.03Q178.56 5.03 178.72 5.05L178.72 5.05L178.72 5.05Q178.89 5.08 179.11 5.12L179.11 5.12L179.11 5.12Q179.33 5.17 179.54 5.24L179.54 5.24L179.54 5.24Q179.76 5.31 179.91 5.39L179.91 5.39L179.91 5.39Q179.84 6.45 179.66 7.59L179.66 7.59L179.66 7.59Q179.47 8.72 179.16 9.83L179.16 9.83L179.16 9.83Q178.85 10.93 178.44 11.96L178.44 11.96L178.44 11.96Q178.04 12.98 177.53 13.79L177.53 13.79L177.53 13.79Q176.79 14.99 175.87 15.67L175.87 15.67L175.87 15.67Q174.94 16.35 173.68 16.35L173.68 16.35L173.68 16.35Q172.40 16.35 171.68 15.60L171.68 15.60L171.68 15.60Q170.97 14.85 170.97 13.33L170.97 13.33L170.97 13.33Q170.97 12.45 171.16 11.33L171.16 11.33L171.16 11.33Q171.36 10.22 171.69 9.07L171.69 9.07L171.69 9.07Q172.02 7.91 172.45 6.81L172.45 6.81L172.45 6.81Q172.89 5.71 173.36 4.84L173.36 4.84L173.36 4.84Q173.60 4.86 173.92 4.94L173.92 4.94L173.92 4.94Q174.24 5.03 174.55 5.16L174.55 5.16L174.55 5.16Q174.86 5.29 175.12 5.45L175.12 5.45L175.12 5.45Q175.38 5.61 175.50 5.75ZM196.41 7.46L196.41 7.46L196.41 7.46Q196.41 8.13 196.11 8.73L196.11 8.73L196.11 8.73Q195.80 9.32 195.27 9.79L195.27 9.79L195.27 9.79Q194.74 10.26 194.03 10.58L194.03 10.58L194.03 10.58Q193.31 10.91 192.47 11.02L192.47 11.02L192.47 11.02Q192.68 11.65 192.98 12.31L192.98 12.31L192.98 12.31Q193.28 12.98 193.63 13.59L193.63 13.59L193.63 13.59Q193.98 14.21 194.36 14.73L194.36 14.73L194.36 14.73Q194.74 15.25 195.10 15.58L195.10 15.58L195.10 15.58Q195.03 15.72 194.90 15.86L194.90 15.86L194.90 15.86Q194.77 16.00 194.59 16.12L194.59 16.12L194.59 16.12Q194.42 16.24 194.23 16.32L194.23 16.32L194.23 16.32Q194.04 16.39 193.87 16.39L193.87 16.39L193.87 16.39Q193.56 16.39 193.28 16.10L193.28 16.10L193.28 16.10Q193.00 15.81 192.72 15.17L192.72 15.17L192.72 15.17Q192.43 14.53 192.12 13.52L192.12 13.52L192.12 13.52Q191.80 12.50 191.42 11.07L191.42 11.07L191.42 11.07Q191.27 11.07 191.11 11.07L191.11 11.07L191.11 11.07Q190.96 11.07 190.88 11.05L190.88 11.05L190.88 11.05Q190.78 10.99 190.67 10.85L190.67 10.85L190.67 10.85Q190.29 11.66 189.99 12.38L189.99 12.38L189.99 12.38Q189.70 13.09 189.47 13.76L189.47 13.76L189.47 13.76Q189.24 14.42 189.06 15.04L189.06 15.04L189.06 15.04Q188.89 15.67 188.76 16.31L188.76 16.31L188.76 16.31Q188.29 16.20 187.94 15.90L187.94 15.90L187.94 15.90Q187.59 15.61 187.28 15.08L187.28 15.08L187.28 15.08Q187.33 14.95 187.40 14.83L187.40 14.83L187.40 14.83Q187.46 14.71 187.56 14.50L187.56 14.50L187.56 14.50Q187.66 14.28 187.80 13.94L187.80 13.94L187.80 13.94Q187.95 13.61 188.20 13.05L188.20 13.05L188.20 13.05Q188.44 12.49 188.78 11.68L188.78 11.68L188.78 11.68Q189.13 10.86 189.62 9.70L189.62 9.70L189.62 9.70Q189.84 9.18 190.00 8.79L190.00 8.79L190.00 8.79Q190.16 8.40 190.29 8.04L190.29 8.04L190.29 8.04Q190.41 7.69 190.52 7.33L190.52 7.33L190.52 7.33Q190.62 6.97 190.74 6.51L190.74 6.51L190.74 6.51Q190.09 6.73 189.54 7.01L189.54 7.01L189.54 7.01Q188.99 7.28 188.62 7.59L188.62 7.59L188.62 7.59Q188.50 7.50 188.36 7.34L188.36 7.34L188.36 7.34Q188.23 7.17 188.12 6.96L188.12 6.96L188.12 6.96Q188.01 6.76 187.92 6.55L187.92 6.55L187.92 6.55Q187.84 6.34 187.82 6.17L187.82 6.17L187.82 6.17Q188.24 5.89 188.85 5.66L188.85 5.66L188.85 5.66Q189.46 5.42 190.15 5.24L190.15 5.24L190.15 5.24Q190.83 5.07 191.55 4.97L191.55 4.97L191.55 4.97Q192.26 4.87 192.88 4.87L192.88 4.87L192.88 4.87Q194.56 4.87 195.48 5.56L195.48 5.56L195.48 5.56Q196.41 6.26 196.41 7.46ZM192.82 6.02L192.99 6.29L192.99 6.29Q192.89 6.41 192.68 6.79L192.68 6.79L192.68 6.79Q192.47 7.17 192.20 7.69L192.20 7.69L192.20 7.69Q191.93 8.22 191.63 8.83L191.63 8.83L191.63 8.83Q191.32 9.45 191.04 10.05L191.04 10.05L191.04 10.05Q192.09 10.05 192.98 9.86L192.98 9.86L192.98 9.86Q193.86 9.66 194.50 9.30L194.50 9.30L194.50 9.30Q195.15 8.95 195.50 8.46L195.50 8.46L195.50 8.46Q195.86 7.98 195.86 7.39L195.86 7.39L195.86 7.39Q195.86 6.69 195.36 6.32L195.36 6.32L195.36 6.32Q194.85 5.95 193.80 5.95L193.80 5.95L193.80 5.95Q193.56 5.95 193.33 5.97L193.33 5.97L193.33 5.97Q193.09 5.99 192.82 6.02L192.82 6.02ZM216.66 6.69L216.66 6.69L216.66 6.69Q216.10 6.69 215.80 6.38L215.80 6.38L215.80 6.38Q215.50 6.06 215.50 5.61L215.50 5.61L215.50 5.61Q215.50 5.50 215.54 5.35L215.54 5.35L215.54 5.35Q215.57 5.19 215.63 5.08L215.63 5.08L215.63 5.08Q215.81 5.17 216.17 5.20L216.17 5.20L216.17 5.20Q216.52 5.24 217 5.24L217 5.24L217 5.24Q217.71 5.24 218.62 5.17L218.62 5.17L218.62 5.17Q219.52 5.11 220.35 5.04L220.35 5.04L220.35 5.04Q221.17 4.97 221.80 4.91L221.80 4.91L221.80 4.91Q222.43 4.84 222.61 4.84L222.61 4.84L222.61 4.84Q223.13 4.84 223.36 5.23L223.36 5.23L223.36 5.23Q223.59 5.61 223.71 6.26L223.71 6.26L223.71 6.26Q223.34 6.23 222.99 6.21L222.99 6.21L222.99 6.21Q222.63 6.19 222.38 6.19L222.38 6.19L222.38 6.19Q221.93 6.19 221.47 6.22L221.47 6.22L221.47 6.22Q221.02 6.24 220.56 6.30L220.56 6.30L220.56 6.30Q220.36 6.71 220.12 7.26L220.12 7.26L220.12 7.26Q219.88 7.81 219.65 8.41L219.65 8.41L219.65 8.41Q219.42 9.02 219.21 9.61L219.21 9.61L219.21 9.61Q219.00 10.21 218.85 10.68L218.85 10.68L218.85 10.68Q218.54 11.61 218.31 12.39L218.31 12.39L218.31 12.39Q218.08 13.17 217.90 13.85L217.90 13.85L217.90 13.85Q217.73 14.53 217.60 15.15L217.60 15.15L217.60 15.15Q217.48 15.76 217.38 16.35L217.38 16.35L217.38 16.35Q216.44 16.21 215.81 15.18L215.81 15.18L215.81 15.18Q215.92 14.74 216.08 14.23L216.08 14.23L216.08 14.23Q216.24 13.72 216.46 13.07L216.46 13.07L216.46 13.07Q216.68 12.42 216.97 11.59L216.97 11.59L216.97 11.59Q217.27 10.77 217.64 9.72L217.64 9.72L217.64 9.72Q217.78 9.32 217.94 8.90L217.94 8.90L217.94 8.90Q218.09 8.47 218.24 8.05L218.24 8.05L218.24 8.05Q218.39 7.63 218.50 7.24L218.50 7.24L218.50 7.24Q218.62 6.85 218.71 6.52L218.71 6.52L218.71 6.52Q218.12 6.59 217.59 6.64L217.59 6.64L217.59 6.64Q217.07 6.69 216.66 6.69ZM234.50 5.75L234.50 5.75L234.50 5.75Q233.88 6.58 233.38 7.57L233.38 7.57L233.38 7.57Q232.88 8.57 232.52 9.61L232.52 9.61L232.52 9.61Q232.16 10.65 231.97 11.67L231.97 11.67L231.97 11.67Q231.78 12.68 231.78 13.57L231.78 13.57L231.78 13.57Q231.78 14.66 232.11 15.15L232.11 15.15L232.11 15.15Q232.43 15.64 233.21 15.64L233.21 15.64L233.21 15.64Q234.12 15.64 234.81 15.00L234.81 15.00L234.81 15.00Q235.49 14.36 236.10 13.24L236.10 13.24L236.10 13.24Q236.49 12.52 236.77 11.65L236.77 11.65L236.77 11.65Q237.05 10.78 237.22 9.86L237.22 9.86L237.22 9.86Q237.40 8.95 237.48 8.02L237.48 8.02L237.48 8.02Q237.57 7.08 237.57 6.23L237.57 6.23L237.57 6.23Q237.57 5.68 237.55 5.43L237.55 5.43L237.55 5.43Q237.54 5.18 237.51 5.03L237.51 5.03L237.51 5.03Q237.55 5.03 237.72 5.05L237.72 5.05L237.72 5.05Q237.89 5.08 238.11 5.12L238.11 5.12L238.11 5.12Q238.32 5.17 238.54 5.24L238.54 5.24L238.54 5.24Q238.76 5.31 238.91 5.39L238.91 5.39L238.91 5.39Q238.84 6.45 238.65 7.59L238.65 7.59L238.65 7.59Q238.46 8.72 238.15 9.83L238.15 9.83L238.15 9.83Q237.85 10.93 237.44 11.96L237.44 11.96L237.44 11.96Q237.03 12.98 236.53 13.79L236.53 13.79L236.53 13.79Q235.79 14.99 234.86 15.67L234.86 15.67L234.86 15.67Q233.94 16.35 232.68 16.35L232.68 16.35L232.68 16.35Q231.39 16.35 230.68 15.60L230.68 15.60L230.68 15.60Q229.96 14.85 229.96 13.33L229.96 13.33L229.96 13.33Q229.96 12.45 230.16 11.33L230.16 11.33L230.16 11.33Q230.36 10.22 230.69 9.07L230.69 9.07L230.69 9.07Q231.01 7.91 231.45 6.81L231.45 6.81L231.45 6.81Q231.88 5.71 232.36 4.84L232.36 4.84L232.36 4.84Q232.60 4.86 232.92 4.94L232.92 4.94L232.92 4.94Q233.24 5.03 233.55 5.16L233.55 5.16L233.55 5.16Q233.86 5.29 234.12 5.45L234.12 5.45L234.12 5.45Q234.37 5.61 234.50 5.75ZM251.66 16.21L251.66 16.21L251.66 16.21Q251.64 16.23 251.61 16.23L251.61 16.23L251.61 16.23Q251.58 16.23 251.50 16.23L251.50 16.23L251.50 16.23Q251.30 16.23 251.04 16.16L251.04 16.16L251.04 16.16Q250.78 16.10 250.54 16.01L250.54 16.01L250.54 16.01Q250.29 15.92 250.12 15.81L250.12 15.81L250.12 15.81Q249.94 15.69 249.90 15.61L249.90 15.61L249.90 15.61Q249.89 15.41 249.89 15.20L249.89 15.20L249.89 15.20Q249.89 14.99 249.89 14.80L249.89 14.80L249.89 14.80Q249.89 13.23 250.12 11.52L250.12 11.52L250.12 11.52Q250.35 9.81 250.88 7.83L250.88 7.83L250.88 7.83Q250.94 7.63 251.00 7.33L251.00 7.33L251.00 7.33Q251.06 7.03 251.13 6.68L251.13 6.68L251.13 6.68Q250.80 6.94 250.33 7.53L250.33 7.53L250.33 7.53Q249.87 8.11 249.36 8.90L249.36 8.90L249.36 8.90Q248.85 9.69 248.34 10.63L248.34 10.63L248.34 10.63Q247.83 11.58 247.41 12.55L247.41 12.55L247.41 12.55Q246.99 13.52 246.69 14.48L246.69 14.48L246.69 14.48Q246.39 15.43 246.32 16.24L246.32 16.24L246.32 16.24Q245.64 16.04 245.39 15.85L245.39 15.85L245.39 15.85Q245.13 15.65 245.13 15.37L245.13 15.37L245.13 15.37Q245.13 15.12 245.28 14.66L245.28 14.66L245.28 14.66Q245.43 14.20 245.71 13.57L245.71 13.57L245.71 13.57Q245.99 12.94 246.40 12.16L246.40 12.16L246.40 12.16Q246.81 11.38 247.30 10.49L247.30 10.49L247.30 10.49Q247.86 9.46 248.40 8.57L248.40 8.57L248.40 8.57Q248.93 7.67 249.45 6.94L249.45 6.94L249.45 6.94Q249.97 6.22 250.47 5.68L250.47 5.68L250.47 5.68Q250.96 5.15 251.45 4.87L251.45 4.87L251.45 4.87Q251.65 4.87 251.98 4.97L251.98 4.97L251.98 4.97Q252.31 5.07 252.62 5.21L252.62 5.21L252.62 5.21Q252.94 5.35 253.18 5.49L253.18 5.49L253.18 5.49Q253.43 5.64 253.46 5.74L253.46 5.74L253.46 5.74Q253.26 6.13 252.99 6.92L252.99 6.92L252.99 6.92Q252.73 7.70 252.46 8.69L252.46 8.69L252.46 8.69Q252.18 9.69 251.94 10.80L251.94 10.80L251.94 10.80Q251.69 11.91 251.55 12.94L251.55 12.94L251.55 12.94Q251.87 12.17 252.30 11.33L252.30 11.33L252.30 11.33Q252.73 10.50 253.20 9.68L253.20 9.68L253.20 9.68Q253.68 8.86 254.18 8.09L254.18 8.09L254.18 8.09Q254.67 7.32 255.15 6.69L255.15 6.69L255.15 6.69Q255.63 6.05 256.04 5.57L256.04 5.57L256.04 5.57Q256.45 5.10 256.77 4.87L256.77 4.87L256.77 4.87Q256.97 4.87 257.30 4.97L257.30 4.97L257.30 4.97Q257.63 5.07 257.94 5.21L257.94 5.21L257.94 5.21Q258.26 5.35 258.50 5.49L258.50 5.49L258.50 5.49Q258.75 5.64 258.78 5.74L258.78 5.74L258.78 5.74Q258.33 6.54 257.99 7.69L257.99 7.69L257.99 7.69Q257.66 8.83 257.43 10.09L257.43 10.09L257.43 10.09Q257.19 11.35 257.08 12.59L257.08 12.59L257.08 12.59Q256.96 13.83 256.96 14.81L256.96 14.81L256.96 14.81Q256.96 15.13 256.96 15.48L256.96 15.48L256.96 15.48Q256.96 15.83 256.98 16.21L256.98 16.21L256.98 16.21Q256.79 16.21 256.52 16.16L256.52 16.16L256.52 16.16Q256.24 16.11 255.98 16.03L255.98 16.03L255.98 16.03Q255.72 15.95 255.51 15.84L255.51 15.84L255.51 15.84Q255.30 15.74 255.22 15.61L255.22 15.61L255.22 15.61Q255.21 15.41 255.21 15.20L255.21 15.20L255.21 15.20Q255.21 14.99 255.21 14.80L255.21 14.80L255.21 14.80Q255.21 13.23 255.44 11.52L255.44 11.52L255.44 11.52Q255.67 9.81 256.20 7.83L256.20 7.83L256.20 7.83Q256.26 7.63 256.33 7.29L256.33 7.29L256.33 7.29Q256.40 6.96 256.47 6.59L256.47 6.59L256.47 6.59Q256.07 6.79 255.58 7.34L255.58 7.34L255.58 7.34Q255.08 7.90 254.57 8.69L254.57 8.69L254.57 8.69Q254.06 9.48 253.56 10.44L253.56 10.44L253.56 10.44Q253.06 11.41 252.67 12.41L252.67 12.41L252.67 12.41Q252.27 13.41 251.99 14.40L251.99 14.40L251.99 14.40Q251.72 15.39 251.66 16.21ZM271.85 16.21L271.85 16.21L271.85 16.21Q271.82 16.23 271.80 16.23L271.80 16.23L271.80 16.23Q271.77 16.23 271.68 16.23L271.68 16.23L271.68 16.23Q271.49 16.23 271.23 16.16L271.23 16.16L271.23 16.16Q270.97 16.10 270.73 16.01L270.73 16.01L270.73 16.01Q270.48 15.92 270.31 15.81L270.31 15.81L270.31 15.81Q270.13 15.69 270.09 15.61L270.09 15.61L270.09 15.61Q270.07 15.41 270.07 15.20L270.07 15.20L270.07 15.20Q270.07 14.99 270.07 14.80L270.07 14.80L270.07 14.80Q270.07 13.23 270.31 11.52L270.31 11.52L270.31 11.52Q270.54 9.81 271.07 7.83L271.07 7.83L271.07 7.83Q271.12 7.63 271.19 7.33L271.19 7.33L271.19 7.33Q271.25 7.03 271.32 6.68L271.32 6.68L271.32 6.68Q270.98 6.94 270.52 7.53L270.52 7.53L270.52 7.53Q270.06 8.11 269.55 8.90L269.55 8.90L269.55 8.90Q269.04 9.69 268.53 10.63L268.53 10.63L268.53 10.63Q268.02 11.58 267.60 12.55L267.60 12.55L267.60 12.55Q267.18 13.52 266.88 14.48L266.88 14.48L266.88 14.48Q266.57 15.43 266.50 16.24L266.50 16.24L266.50 16.24Q265.83 16.04 265.57 15.85L265.57 15.85L265.57 15.85Q265.31 15.65 265.31 15.37L265.31 15.37L265.31 15.37Q265.31 15.12 265.47 14.66L265.47 14.66L265.47 14.66Q265.62 14.20 265.90 13.57L265.90 13.57L265.90 13.57Q266.18 12.94 266.59 12.16L266.59 12.16L266.59 12.16Q266.99 11.38 267.48 10.49L267.48 10.49L267.48 10.49Q268.04 9.46 268.58 8.57L268.58 8.57L268.58 8.57Q269.12 7.67 269.64 6.94L269.64 6.94L269.64 6.94Q270.16 6.22 270.66 5.68L270.66 5.68L270.66 5.68Q271.15 5.15 271.64 4.87L271.64 4.87L271.64 4.87Q271.84 4.87 272.17 4.97L272.17 4.97L272.17 4.97Q272.50 5.07 272.81 5.21L272.81 5.21L272.81 5.21Q273.13 5.35 273.37 5.49L273.37 5.49L273.37 5.49Q273.62 5.64 273.64 5.74L273.64 5.74L273.64 5.74Q273.45 6.13 273.18 6.92L273.18 6.92L273.18 6.92Q272.92 7.70 272.64 8.69L272.64 8.69L272.64 8.69Q272.37 9.69 272.13 10.80L272.13 10.80L272.13 10.80Q271.88 11.91 271.74 12.94L271.74 12.94L271.74 12.94Q272.06 12.17 272.49 11.33L272.49 11.33L272.49 11.33Q272.92 10.50 273.39 9.68L273.39 9.68L273.39 9.68Q273.87 8.86 274.37 8.09L274.37 8.09L274.37 8.09Q274.86 7.32 275.34 6.69L275.34 6.69L275.34 6.69Q275.81 6.05 276.23 5.57L276.23 5.57L276.23 5.57Q276.64 5.10 276.96 4.87L276.96 4.87L276.96 4.87Q277.16 4.87 277.49 4.97L277.49 4.97L277.49 4.97Q277.82 5.07 278.13 5.21L278.13 5.21L278.13 5.21Q278.45 5.35 278.69 5.49L278.69 5.49L278.69 5.49Q278.94 5.64 278.96 5.74L278.96 5.74L278.96 5.74Q278.52 6.54 278.18 7.69L278.18 7.69L278.18 7.69Q277.84 8.83 277.61 10.09L277.61 10.09L277.61 10.09Q277.38 11.35 277.26 12.59L277.26 12.59L277.26 12.59Q277.14 13.83 277.14 14.81L277.14 14.81L277.14 14.81Q277.14 15.13 277.14 15.48L277.14 15.48L277.14 15.48Q277.14 15.83 277.17 16.21L277.17 16.21L277.17 16.21Q276.98 16.21 276.70 16.16L276.70 16.16L276.70 16.16Q276.43 16.11 276.17 16.03L276.17 16.03L276.17 16.03Q275.91 15.95 275.70 15.84L275.70 15.84L275.70 15.84Q275.49 15.74 275.41 15.61L275.41 15.61L275.41 15.61Q275.39 15.41 275.39 15.20L275.39 15.20L275.39 15.20Q275.39 14.99 275.39 14.80L275.39 14.80L275.39 14.80Q275.39 13.23 275.63 11.52L275.63 11.52L275.63 11.52Q275.86 9.81 276.39 7.83L276.39 7.83L276.39 7.83Q276.44 7.63 276.51 7.29L276.51 7.29L276.51 7.29Q276.58 6.96 276.65 6.59L276.65 6.59L276.65 6.59Q276.26 6.79 275.76 7.34L275.76 7.34L275.76 7.34Q275.27 7.90 274.76 8.69L274.76 8.69L274.76 8.69Q274.25 9.48 273.75 10.44L273.75 10.44L273.75 10.44Q273.25 11.41 272.85 12.41L272.85 12.41L272.85 12.41Q272.45 13.41 272.18 14.40L272.18 14.40L272.18 14.40Q271.91 15.39 271.85 16.21ZM290.79 10.35L290.79 10.35L290.79 10.35Q291.84 9.20 292.68 7.91L292.68 7.91L292.68 7.91Q293.51 6.62 294.22 5.01L294.22 5.01L294.22 5.01Q294.59 5.05 294.92 5.21L294.92 5.21L294.92 5.21Q295.26 5.36 295.46 5.56L295.46 5.56L295.46 5.56Q294.69 6.48 294.06 7.24L294.06 7.24L294.06 7.24Q293.44 7.99 292.92 8.66L292.92 8.66L292.92 8.66Q292.40 9.32 291.96 9.93L291.96 9.93L291.96 9.93Q291.52 10.54 291.10 11.16L291.10 11.16L291.10 11.16Q290.89 11.87 290.71 12.60L290.71 12.60L290.71 12.60Q290.53 13.33 290.39 13.99L290.39 13.99L290.39 13.99Q290.25 14.66 290.17 15.22L290.17 15.22L290.17 15.22Q290.09 15.79 290.09 16.20L290.09 16.20L290.09 16.20Q289.94 16.20 289.60 16.14L289.60 16.14L289.60 16.14Q289.27 16.07 288.92 15.99L288.92 15.99L288.92 15.99Q288.57 15.90 288.28 15.82L288.28 15.82L288.28 15.82Q287.99 15.74 287.94 15.68L287.94 15.68L287.94 15.68Q288.16 15.30 288.38 14.75L288.38 14.75L288.38 14.75Q288.60 14.20 288.81 13.59L288.81 13.59L288.81 13.59Q289.02 12.98 289.21 12.36L289.21 12.36L289.21 12.36Q289.41 11.73 289.58 11.20L289.58 11.20L289.58 11.20Q289.23 10.11 288.90 9.15L288.90 9.15L288.90 9.15Q288.57 8.19 288.26 7.41L288.26 7.41L288.26 7.41Q287.95 6.64 287.67 6.08L287.67 6.08L287.67 6.08Q287.39 5.52 287.14 5.22L287.14 5.22L287.14 5.22Q287.28 5.17 287.57 5.11L287.57 5.11L287.57 5.11Q287.85 5.05 288.20 5.00L288.20 5.00L288.20 5.00Q288.54 4.94 288.90 4.91L288.90 4.91L288.90 4.91Q289.25 4.87 289.53 4.86L289.53 4.86L289.53 4.86Q289.53 5.21 289.60 5.71L289.60 5.71L289.60 5.71Q289.66 6.22 289.76 6.79L289.76 6.79L289.76 6.79Q289.87 7.36 290.01 7.95L290.01 7.95L290.01 7.95Q290.15 8.54 290.29 9.03L290.29 9.03L290.29 9.03Q290.43 9.52 290.56 9.88L290.56 9.88L290.56 9.88Q290.70 10.23 290.79 10.35Z"></path></g></svg>