<svg data-v-423bf9ae="" xmlns="http://www.w3.org/2000/svg" viewBox="0 0 151.54702072250325 60" class="font"><!----><!----><!----><g data-v-423bf9ae="" id="d05a201f-7c2b-4871-b6fa-4b81b21f129b" fill="white" transform="matrix(6.066733864221661,0,0,6.066733864221661,-1.2740145739172277,0.3640039867128735)"><path d="M4.98 2.39L4.98 2.39L4.98 2.39Q4.62 2.39 4.38 2.13L4.38 2.13L4.38 2.13Q4.13 1.88 4.13 1.51L4.13 1.51L4.13 1.51Q4.13 1.12 4.42 0.85L4.42 0.85L4.42 0.85Q4.70 0.57 5.10 0.63L5.10 0.63L5.10 0.63Q4.82 0.36 4.33 0.36L4.33 0.36L4.33 0.36Q3.23 0.36 3.21 1.51L3.21 1.51L3.21 4.00L5.81 4.00L5.81 4.42L3.21 4.42L3.21 9.41L4.49 9.41L4.49 9.83L0.21 9.83L0.21 9.41L1.50 9.41L1.50 4.42L0.21 4.42L0.21 4.00L1.50 4.00L1.50 2.83L1.50 2.83Q1.50 1.46 2.23 0.70L2.23 0.70L2.23 0.70Q2.97-0.06 4.33-0.06L4.33-0.06L4.33-0.06Q5.00-0.06 5.42 0.38L5.42 0.38L5.42 0.38Q5.85 0.83 5.85 1.51L5.85 1.51L5.85 1.51Q5.85 1.88 5.60 2.13L5.60 2.13L5.60 2.13Q5.35 2.39 4.98 2.39ZM8.08 9.83L8.08 9.83L8.08 9.83Q7.50 9.83 6.99 9.60L6.99 9.60L6.99 9.60Q6.47 9.37 6.08 8.98L6.08 8.98L6.08 8.98Q5.70 8.60 5.47 8.08L5.47 8.08L5.47 8.08Q5.24 7.56 5.24 6.99L5.24 6.99L5.24 6.99Q5.24 6.40 5.46 5.88L5.46 5.88L5.46 5.88Q5.68 5.36 6.07 4.98L6.07 4.98L6.07 4.98Q6.45 4.59 6.97 4.37L6.97 4.37L6.97 4.37Q7.49 4.14 8.08 4.14L8.08 4.14L8.08 4.14Q8.67 4.14 9.18 4.37L9.18 4.37L9.18 4.37Q9.70 4.59 10.09 4.98L10.09 4.98L10.09 4.98Q10.47 5.36 10.70 5.88L10.70 5.88L10.70 5.88Q10.92 6.40 10.92 6.99L10.92 6.99L10.92 6.99Q10.92 7.57 10.70 8.08L10.70 8.08L10.70 8.08Q10.47 8.60 10.08 8.99L10.08 8.99L10.08 8.99Q9.69 9.38 9.18 9.60L9.18 9.60L9.18 9.60Q8.67 9.83 8.08 9.83ZM9.20 8.30L9.20 5.67L9.20 5.67Q9.20 5.21 8.87 4.88L8.87 4.88L8.87 4.88Q8.54 4.55 8.08 4.55L8.08 4.55L8.08 4.55Q7.62 4.55 7.29 4.88L7.29 4.88L7.29 4.88Q6.96 5.21 6.96 5.67L6.96 5.67L6.96 8.30L6.96 8.30Q6.96 8.76 7.29 9.09L7.29 9.09L7.29 9.09Q7.62 9.42 8.08 9.42L8.08 9.42L8.08 9.42Q8.54 9.42 8.87 9.09L8.87 9.09L8.87 9.09Q9.20 8.76 9.20 8.30L9.20 8.30ZM14.53 9.83L14.53 9.83L14.53 9.83Q13.96 9.83 13.44 9.60L13.44 9.60L13.44 9.60Q12.92 9.37 12.54 8.98L12.54 8.98L12.54 8.98Q12.15 8.60 11.92 8.08L11.92 8.08L11.92 8.08Q11.69 7.56 11.69 6.99L11.69 6.99L11.69 6.99Q11.69 6.40 11.91 5.88L11.91 5.88L11.91 5.88Q12.14 5.36 12.52 4.98L12.52 4.98L12.52 4.98Q12.91 4.59 13.43 4.37L13.43 4.37L13.43 4.37Q13.94 4.14 14.53 4.14L14.53 4.14L14.53 4.14Q15.12 4.14 15.64 4.37L15.64 4.37L15.64 4.37Q16.16 4.59 16.54 4.98L16.54 4.98L16.54 4.98Q16.93 5.36 17.15 5.88L17.15 5.88L17.15 5.88Q17.37 6.40 17.37 6.99L17.37 6.99L17.37 6.99Q17.37 7.57 17.15 8.08L17.15 8.08L17.15 8.08Q16.93 8.60 16.53 8.99L16.53 8.99L16.53 8.99Q16.14 9.38 15.63 9.60L15.63 9.60L15.63 9.60Q15.12 9.83 14.53 9.83ZM15.65 8.30L15.65 5.67L15.65 5.67Q15.65 5.21 15.32 4.88L15.32 4.88L15.32 4.88Q14.99 4.55 14.53 4.55L14.53 4.55L14.53 4.55Q14.07 4.55 13.74 4.88L13.74 4.88L13.74 4.88Q13.41 5.21 13.41 5.67L13.41 5.67L13.41 8.30L13.41 8.30Q13.41 8.76 13.74 9.09L13.74 9.09L13.74 9.09Q14.07 9.42 14.53 9.42L14.53 9.42L14.53 9.42Q14.99 9.42 15.32 9.09L15.32 9.09L15.32 9.09Q15.65 8.76 15.65 8.30L15.65 8.30ZM25.19 9.83L21.01 9.83L21.01 9.83Q20.43 9.83 19.90 9.60L19.90 9.60L19.90 9.60Q19.38 9.37 18.98 8.97L18.98 8.97L18.98 8.97Q18.59 8.58 18.37 8.05L18.37 8.05L18.37 8.05Q18.14 7.52 18.14 6.92L18.14 6.92L18.14 6.92Q18.14 6.30 18.36 5.77L18.36 5.77L18.36 5.77Q18.58 5.24 18.97 4.84L18.97 4.84L18.97 4.84Q19.36 4.45 19.88 4.23L19.88 4.23L19.88 4.23Q20.40 4.00 21.01 4.00L21.01 4.00L22.15 4.00L22.15 0.36L20.85 0.36L20.85-0.04L23.88-0.04L23.88 9.41L25.19 9.41L25.19 9.83ZM22.15 9.41L22.15 4.42L21.01 4.42L21.01 4.42Q20.80 4.42 20.60 4.52L20.60 4.52L20.60 4.52Q20.40 4.62 20.24 4.78L20.24 4.78L20.24 4.78Q20.08 4.94 19.98 5.15L19.98 5.15L19.98 5.15Q19.88 5.36 19.88 5.57L19.88 5.57L19.88 8.27L19.88 8.27Q19.88 8.75 20.22 9.09L20.22 9.09L20.22 9.09Q20.55 9.42 21.03 9.42L21.03 9.42L21.03 9.42Q21.31 9.42 21.59 9.41L21.59 9.41L21.59 9.41Q21.87 9.41 22.15 9.41L22.15 9.41Z"></path></g><!----><!----></svg>