<svg data-v-423bf9ae="" xmlns="http://www.w3.org/2000/svg" viewBox="0 0 271 90" class="iconLeft"><!----><!----><!----><g data-v-423bf9ae="" id="77007918-97cf-4633-880c-a38b7ab84d4e" fill="black" transform="matrix(5.376344159530915,0,0,5.376344159530915,131.57838370808216,-0.05376458241538984)"><path d="M1.17 13.78L1.17 6.79L0.09 6.79L0.09 5.63L1.18 5.63L1.18 5.11L1.18 5.11Q1.18 4.05 1.70 3.43L1.70 3.43L1.70 3.43Q2.21 2.80 3.15 2.80L3.15 2.80L4.27 2.80L4.27 4.00L3.60 4.00L3.60 4.00Q3.21 4.00 3.00 4.29L3.00 4.29L3.00 4.29Q2.78 4.57 2.78 5.06L2.78 5.06L2.78 5.63L4.27 5.63L4.27 6.79L2.83 6.79L2.83 13.78L1.17 13.78ZM7.88 13.96L7.88 13.96Q6.89 13.96 6.16 13.50L6.16 13.50L6.16 13.50Q5.43 13.04 5.03 12.10L5.03 12.10L5.03 12.10Q4.63 11.15 4.63 9.73L4.63 9.73L4.63 9.73Q4.63 8.30 5.03 7.35L5.03 7.35L5.03 7.35Q5.43 6.40 6.16 5.94L6.16 5.94L6.16 5.94Q6.88 5.48 7.88 5.48L7.88 5.48L7.88 5.48Q8.87 5.48 9.60 5.94L9.60 5.94L9.60 5.94Q10.32 6.40 10.72 7.35L10.72 7.35L10.72 7.35Q11.12 8.30 11.12 9.73L11.12 9.73L11.12 9.73Q11.12 11.15 10.72 12.10L10.72 12.10L10.72 12.10Q10.32 13.04 9.60 13.50L9.60 13.50L9.60 13.50Q8.87 13.96 7.88 13.96L7.88 13.96ZM7.87 12.63L7.87 12.63Q8.67 12.63 9.10 11.96L9.10 11.96L9.10 11.96Q9.53 11.29 9.53 9.73L9.53 9.73L9.53 9.73Q9.53 8.13 9.11 7.46L9.11 7.46L9.11 7.46Q8.68 6.79 7.87 6.79L7.87 6.79L7.87 6.79Q7.09 6.79 6.67 7.46L6.67 7.46L6.67 7.46Q6.25 8.13 6.25 9.73L6.25 9.73L6.25 9.73Q6.25 11.29 6.67 11.96L6.67 11.96L6.67 11.96Q7.09 12.63 7.87 12.63L7.87 12.63ZM15.20 13.96L15.20 13.96Q14.21 13.96 13.48 13.50L13.48 13.50L13.48 13.50Q12.76 13.04 12.36 12.10L12.36 12.10L12.36 12.10Q11.96 11.15 11.96 9.73L11.96 9.73L11.96 9.73Q11.96 8.30 12.36 7.35L12.36 7.35L12.36 7.35Q12.76 6.40 13.48 5.94L13.48 5.94L13.48 5.94Q14.21 5.48 15.20 5.48L15.20 5.48L15.20 5.48Q16.19 5.48 16.92 5.94L16.92 5.94L16.92 5.94Q17.64 6.40 18.04 7.35L18.04 7.35L18.04 7.35Q18.44 8.30 18.44 9.73L18.44 9.73L18.44 9.73Q18.44 11.15 18.04 12.10L18.04 12.10L18.04 12.10Q17.64 13.04 16.92 13.50L16.92 13.50L16.92 13.50Q16.19 13.96 15.20 13.96L15.20 13.96ZM15.19 12.63L15.19 12.63Q16.00 12.63 16.42 11.96L16.42 11.96L16.42 11.96Q16.85 11.29 16.85 9.73L16.85 9.73L16.85 9.73Q16.85 8.13 16.43 7.46L16.43 7.46L16.43 7.46Q16.00 6.79 15.19 6.79L15.19 6.79L15.19 6.79Q14.41 6.79 13.99 7.46L13.99 7.46L13.99 7.46Q13.57 8.13 13.57 9.73L13.57 9.73L13.57 9.73Q13.57 11.29 13.99 11.96L13.99 11.96L13.99 11.96Q14.41 12.63 15.19 12.63L15.19 12.63ZM24.20 2.80L25.86 2.80L25.86 13.78L24.31 13.78L24.26 12.53L24.20 12.53L24.20 12.53Q23.92 13.21 23.39 13.58L23.39 13.58L23.39 13.58Q22.85 13.96 22.15 13.96L22.15 13.96L22.15 13.96Q21.26 13.96 20.62 13.46L20.62 13.46L20.62 13.46Q19.98 12.96 19.64 12.00L19.64 12.00L19.64 12.00Q19.30 11.05 19.30 9.71L19.30 9.71L19.30 9.71Q19.30 8.33 19.65 7.38L19.65 7.38L19.65 7.38Q20.00 6.43 20.63 5.95L20.63 5.95L20.63 5.95Q21.26 5.48 22.12 5.48L22.12 5.48L22.12 5.48Q22.83 5.48 23.33 5.84L23.33 5.84L23.33 5.84Q23.84 6.21 24.14 6.91L24.14 6.91L24.20 6.91L24.20 2.80ZM22.64 12.53L22.64 12.53Q23.14 12.53 23.50 12.19L23.50 12.19L23.50 12.19Q23.86 11.85 24.05 11.22L24.05 11.22L24.05 11.22Q24.24 10.58 24.24 9.70L24.24 9.70L24.24 9.70Q24.24 8.84 24.05 8.22L24.05 8.22L24.05 8.22Q23.86 7.59 23.50 7.26L23.50 7.26L23.50 7.26Q23.14 6.92 22.64 6.92L22.64 6.92L22.64 6.92Q22.18 6.92 21.80 7.22L21.80 7.22L21.80 7.22Q21.43 7.52 21.21 8.15L21.21 8.15L21.21 8.15Q20.99 8.77 20.99 9.70L20.99 9.70L20.99 9.70Q20.99 10.66 21.21 11.29L21.21 11.29L21.21 11.29Q21.42 11.93 21.80 12.23L21.80 12.23L21.80 12.23Q22.17 12.53 22.64 12.53L22.64 12.53Z"></path></g><!----><g data-v-423bf9ae="" id="6467ad4a-4dc2-4619-ba74-c84c375e3788" transform="matrix(3.501945421331816,0,0,3.501945421331816,0.968873258690941,-10.88112831579933)" stroke="none" fill="black"><path d="M19.88 8.935L23.796 16l-3.915 7.065H12.12L8.204 16l3.915-7.065h7.761m.59-1h-8.94L7.061 16l4.47 8.065h8.939L24.939 16 20.47 7.935zM4.356 4.15v23.7H1V4.15h3.356m1-1H0v25.7h5.356V3.15zM31 4.15v23.7h-3.356V4.15H31m1-1h-5.356v25.7H32V3.15z"></path></g><!----></svg>